<?xml version="1.0" encoding="UTF-8"?>
<!DOCTYPE svg PUBLIC "-//W3C//DTD SVG 1.1//EN" "http://www.w3.org/Graphics/SVG/1.1/DTD/svg11.dtd">
<!-- Creator: CorelDRAW 2020 (64-Bit) -->
<svg xmlns="http://www.w3.org/2000/svg" xml:space="preserve" width="3.4174in" height="0.834709in" version="1.1" style="shape-rendering:geometricPrecision; text-rendering:geometricPrecision; image-rendering:optimizeQuality; fill-rule:evenodd; clip-rule:evenodd"
viewBox="0 0 341740 83471"
 xmlns:xlink="http://www.w3.org/1999/xlink"
 xmlns:xodm="http://www.corel.com/coreldraw/odm/2003">
 <defs>
  <style type="text/css">
   <![CDATA[
    .fil0 {fill:#FEFEFE;fill-rule:nonzero}
   ]]>
  </style>
 </defs>
 <g id="Layer_x0020_1">
  <metadata id="CorelCorpID_0Corel-Layer"/>
  <path class="fil0" d="M276708 0l65032 0 0 15060 -24118 0 0 66690 -16796 0 0 -66690 -24118 0 0 -15060zm-31008 74436c-6244,6024 -14858,9035 -25625,9035 -10982,0 -19380,-3011 -25625,-9035 -6029,-6024 -9260,-14199 -9260,-24740l0 -49696 17011 0 0 49696c0,5808 1509,10541 4738,13768 3015,3226 7537,4733 13136,4733 5599,0 9906,-1507 13135,-4733 3230,-3226 4737,-7959 4737,-13768l0 -49696 16797 0 0 49696c0,10541 -3015,18717 -9044,24740zm-88504 7314l-16796 0 0 -81750 16796 0 0 81750zm-96471 -81750l21318 56579 432 0 19164 -56579 17874 0 -28641 81750 -14428 0 -16365 -43242 -646 0 -16150 43242 -14643 0 -28640 -81750 18089 0 18950 56579 646 0 21318 -56579 1722 0z"/>
 </g>
</svg>
